<svg width="510" height="20" viewBox="0 0 510 20" fill="none" xmlns="http://www.w3.org/2000/svg">
<path fill-rule="evenodd" clip-rule="evenodd" d="M505 20L510 20V4.3869e-05L1.78814e-06 0L0 20L5 20C5.00004 14.4772 9.47718 10 15 10C20.5229 10 25 14.4772 25 20L35 20C35 14.4772 39.4772 10 45 10C50.5229 10 55 14.4772 55 20L65 20C65 14.4772 69.4772 10 75 10C80.5229 10 85 14.4772 85 20L95 20C95 14.4772 99.4772 10 105 10C110.523 10 115 14.4772 115 20L125 20C125 14.4772 129.477 10 135 10C140.523 10 145 14.4772 145 20L155 20C155 14.4772 159.477 10 165 10C170.523 10 175 14.4772 175 20L185 20C185 14.4772 189.477 10 195 10C200.523 10 205 14.4772 205 20L215 20C215 14.4772 219.477 10 225 10C230.523 10 235 14.4772 235 20L245 20C245 14.4772 249.477 10 255 10C260.523 10 265 14.4772 265 20L275 20C275 14.4772 279.477 10 285 10C290.523 10 295 14.4772 295 20L305 20C305 14.4772 309.477 10 315 10C320.523 10 325 14.4772 325 20L335 20C335 14.4772 339.477 10 345 10C350.523 10 355 14.4772 355 20L365 20C365 14.4772 369.477 10 375 10C380.523 10 385 14.4772 385 20L395 20C395 14.4772 399.477 10 405 10C410.523 10 415 14.4772 415 20L425 20C425 14.4772 429.477 10 435 10C440.523 10 445 14.4772 445 20L455 20C455 14.4772 459.477 10 465 10C470.523 10 475 14.4772 475 20L485 20C485 14.4772 489.477 10 495 10C500.523 10 505 14.4772 505 20Z" fill="#f4f4f5"/>
</svg>
