<svg width="510" height="20" viewBox="0 0 510 20" fill="none" xmlns="http://www.w3.org/2000/svg">
<path fill-rule="evenodd" clip-rule="evenodd" d="M5 -8.99249e-05L1.74846e-06 -4.45856e-05L0 19.9999L510 20L510 4.3869e-05L505 3.00805e-05C505 5.52284 500.523 9.99995 495 9.99995C489.477 9.99995 485 5.5228 485 -4.79619e-05L475 -4.69288e-05C475 5.5228 470.523 9.99995 465 9.99995C459.477 9.99995 455 5.5228 455 -5.05846e-05L445 -4.95515e-05C445 5.5228 440.523 9.99995 435 9.99995C429.477 9.99995 425 5.52279 425 -5.32073e-05L415 -5.21742e-05C415 5.5228 410.523 9.99995 405 9.99995C399.477 9.99994 395 5.52279 395 -5.583e-05L385 -5.47969e-05C385 5.52279 380.523 9.99994 375 9.99994C369.477 9.99994 365 5.52279 365 -5.84527e-05L355 -5.74195e-05C355 5.52279 350.523 9.99994 345 9.99994C339.477 9.99994 335 5.52279 335 -6.10754e-05L325 -6.00422e-05C325 5.52279 320.523 9.99994 315 9.99994C309.477 9.99994 305 5.52278 305 -6.3698e-05L295 -6.26649e-05C295 5.52278 290.523 9.99994 285 9.99994C279.477 9.99993 275 5.52278 275 -6.63207e-05L265 -6.52876e-05C265 5.52278 260.523 9.99993 255 9.99993C249.477 9.99993 245 5.52278 245 -6.89434e-05L235 -6.79103e-05C235 5.52278 230.523 9.99993 225 9.99993C219.477 9.99993 215 5.52278 215 -7.15661e-05L205 -7.0533e-05C205 5.52278 200.523 9.99993 195 9.99993C189.477 9.99993 185 5.52277 185 -7.41888e-05L175 -7.31556e-05C175 5.52277 170.523 9.99993 165 9.99993C159.477 9.99992 155 5.52277 155 -7.68115e-05L145 -7.57783e-05C145 5.52277 140.523 9.99992 135 9.99992C129.477 9.99992 125 5.52277 125 -7.94341e-05L115 -7.8401e-05C115 5.52277 110.523 9.99992 105 9.99992C99.4771 9.99992 95 5.52277 95 -8.20568e-05L85 -8.10237e-05C85 5.52277 80.5229 9.99992 75 9.99992C69.4771 9.99992 65 5.52276 65 -8.46795e-05L55 -8.36464e-05C55 5.52276 50.5229 9.99992 45 9.99991C39.4771 9.99991 35 5.52276 35 -8.73022e-05L25 -8.62691e-05C25 5.52276 20.5229 9.99991 15 9.99991C9.47714 9.99991 5 5.52276 5 -8.99249e-05Z" fill="white"/>
</svg>
